<svg xmlns="http://www.w3.org/2000/svg" width="1040" height="960" viewBox="0 0 1040 960"><defs><marker id="open" markerWidth="14" markerHeight="14" refX="13" refY="7" orient="auto" markerUnits="userSpaceOnUse"><path d="M1,1 L13,7 L1,13" fill="none" stroke="#000" stroke-width="1.6"/></marker><marker id="tri" markerWidth="22" markerHeight="22" refX="20" refY="11" orient="auto" markerUnits="userSpaceOnUse"><path d="M2,2 L20,11 L2,20 Z" fill="#fff" stroke="#000" stroke-width="1.6"/></marker></defs><rect width="1040" height="960" fill="#fff"/><rect x="196" y="16" width="714" height="930" fill="#fff" stroke="#000" stroke-width="2"/><text x="553.0" y="44.0" font-family="Arial, Helvetica, sans-serif" font-size="19" text-anchor="middle" font-weight="bold" font-style="normal" fill="#000">KYC TrueFace</text><line x1="118.0" y1="284.0" x2="220.0" y2="84.0" stroke="#000" stroke-width="1.4"/><line x1="118.0" y1="284.0" x2="220.0" y2="144.0" stroke="#000" stroke-width="1.4"/><line x1="118.0" y1="284.0" x2="220.0" y2="204.0" stroke="#000" stroke-width="1.4"/><line x1="118.0" y1="284.0" x2="220.0" y2="264.0" stroke="#000" stroke-width="1.4"/><line x1="118.0" y1="284.0" x2="220.0" y2="324.0" stroke="#000" stroke-width="1.4"/><line x1="118.0" y1="284.0" x2="220.0" y2="384.0" stroke="#000" stroke-width="1.4"/><line x1="118.0" y1="284.0" x2="220.0" y2="444.0" stroke="#000" stroke-width="1.4"/><line x1="118.0" y1="284.0" x2="220.0" y2="504.0" stroke="#000" stroke-width="1.4"/><line x1="118.0" y1="678.0" x2="220.0" y2="598.0" stroke="#000" stroke-width="1.4"/><line x1="118.0" y1="678.0" x2="220.0" y2="658.0" stroke="#000" stroke-width="1.4"/><line x1="118.0" y1="678.0" x2="220.0" y2="718.0" stroke="#000" stroke-width="1.4"/><line x1="118.0" y1="678.0" x2="220.0" y2="778.0" stroke="#000" stroke-width="1.4"/><line x1="118.0" y1="872.0" x2="220.0" y2="872.0" stroke="#000" stroke-width="1.4"/><line x1="949.0" y1="390.0" x2="894.0" y2="290.0" stroke="#000" stroke-width="1.4"/><line x1="949.0" y1="390.0" x2="894.0" y2="500.0" stroke="#000" stroke-width="1.4"/><line x1="949.0" y1="595.0" x2="894.0" y2="500.0" stroke="#000" stroke-width="1.4"/><line x1="949.0" y1="595.0" x2="894.0" y2="700.0" stroke="#000" stroke-width="1.4"/><line x1="949.0" y1="790.0" x2="894.0" y2="700.0" stroke="#000" stroke-width="1.4"/><line x1="92.0" y1="634.0" x2="92.0" y2="380.0" stroke="#000" stroke-width="1.6" marker-end="url(#tri)"/><line x1="92.0" y1="828.0" x2="92.0" y2="774.0" stroke="#000" stroke-width="1.6" marker-end="url(#tri)"/><path d="M442,576.7 L442,525.3" fill="none" stroke="#000" stroke-width="1.4" stroke-dasharray="7,5" marker-end="url(#open)"/><text x="452.0" y="556.0" font-family="Arial, Helvetica, sans-serif" font-size="15" text-anchor="start" font-weight="normal" font-style="italic" fill="#000">«include»</text><path d="M442,850.7 L442,799.3" fill="none" stroke="#000" stroke-width="1.4" stroke-dasharray="7,5" marker-end="url(#open)"/><text x="452.0" y="830.0" font-family="Arial, Helvetica, sans-serif" font-size="15" text-anchor="start" font-weight="normal" font-style="italic" fill="#000">«extend»</text><path d="M524,144 H556 V278 H610.4" fill="none" stroke="#000" stroke-width="1.4" stroke-dasharray="7,5" marker-end="url(#open)"/><text x="564.0" y="207.0" font-family="Arial, Helvetica, sans-serif" font-size="15" text-anchor="start" font-weight="normal" font-style="italic" fill="#000">«include»</text><path d="M524,778 H556 V302 H610.4" fill="none" stroke="#000" stroke-width="1.4" stroke-dasharray="7,5" marker-end="url(#open)"/><text x="564.0" y="752.0" font-family="Arial, Helvetica, sans-serif" font-size="15" text-anchor="start" font-weight="normal" font-style="italic" fill="#000">«include»</text><ellipse cx="372" cy="84" rx="152" ry="24" fill="#fff" stroke="#000" stroke-width="1.7"/><text x="372.0" y="89.5" font-family="Arial, Helvetica, sans-serif" font-size="15.5" text-anchor="middle" font-weight="normal" font-style="normal" fill="#000">Autenticar usuário</text><ellipse cx="372" cy="144" rx="152" ry="24" fill="#fff" stroke="#000" stroke-width="1.7"/><text x="372.0" y="149.5" font-family="Arial, Helvetica, sans-serif" font-size="15.5" text-anchor="middle" font-weight="normal" font-style="normal" fill="#000">Recuperar senha</text><ellipse cx="372" cy="204" rx="152" ry="24" fill="#fff" stroke="#000" stroke-width="1.7"/><text x="372.0" y="209.5" font-family="Arial, Helvetica, sans-serif" font-size="15.5" text-anchor="middle" font-weight="normal" font-style="normal" fill="#000">Definir senha</text><ellipse cx="372" cy="264" rx="152" ry="24" fill="#fff" stroke="#000" stroke-width="1.7"/><text x="372.0" y="269.5" font-family="Arial, Helvetica, sans-serif" font-size="15.5" text-anchor="middle" font-weight="normal" font-style="normal" fill="#000">Visualizar painel de indicadores</text><ellipse cx="372" cy="324" rx="152" ry="24" fill="#fff" stroke="#000" stroke-width="1.7"/><text x="372.0" y="329.5" font-family="Arial, Helvetica, sans-serif" font-size="15.5" text-anchor="middle" font-weight="normal" font-style="normal" fill="#000">Consultar usuários</text><ellipse cx="372" cy="384" rx="152" ry="24" fill="#fff" stroke="#000" stroke-width="1.7"/><text x="372.0" y="389.5" font-family="Arial, Helvetica, sans-serif" font-size="15.5" text-anchor="middle" font-weight="normal" font-style="normal" fill="#000">Consultar fila de análise manual</text><ellipse cx="372" cy="444" rx="152" ry="24" fill="#fff" stroke="#000" stroke-width="1.7"/><text x="372.0" y="449.5" font-family="Arial, Helvetica, sans-serif" font-size="15.5" text-anchor="middle" font-weight="normal" font-style="normal" fill="#000">Consultar histórico de onboardings</text><ellipse cx="372" cy="504" rx="152" ry="24" fill="#fff" stroke="#000" stroke-width="1.7"/><text x="372.0" y="509.5" font-family="Arial, Helvetica, sans-serif" font-size="15.5" text-anchor="middle" font-weight="normal" font-style="normal" fill="#000">Visualizar imagens do onboarding</text><ellipse cx="372" cy="598" rx="152" ry="24" fill="#fff" stroke="#000" stroke-width="1.7"/><text x="372.0" y="603.5" font-family="Arial, Helvetica, sans-serif" font-size="15.5" text-anchor="middle" font-weight="normal" font-style="normal" fill="#000">Analisar onboarding manualmente</text><ellipse cx="372" cy="658" rx="152" ry="24" fill="#fff" stroke="#000" stroke-width="1.7"/><text x="372.0" y="663.5" font-family="Arial, Helvetica, sans-serif" font-size="15.5" text-anchor="middle" font-weight="normal" font-style="normal" fill="#000">Registrar onboarding</text><ellipse cx="372" cy="718" rx="152" ry="24" fill="#fff" stroke="#000" stroke-width="1.7"/><text x="372.0" y="723.5" font-family="Arial, Helvetica, sans-serif" font-size="15.5" text-anchor="middle" font-weight="normal" font-style="normal" fill="#000">Solicitar relatório de usuários</text><ellipse cx="372" cy="778" rx="152" ry="24" fill="#fff" stroke="#000" stroke-width="1.7"/><text x="372.0" y="783.5" font-family="Arial, Helvetica, sans-serif" font-size="15.5" text-anchor="middle" font-weight="normal" font-style="normal" fill="#000">Cadastrar e editar usuários</text><ellipse cx="372" cy="872" rx="152" ry="24" fill="#fff" stroke="#000" stroke-width="1.7"/><text x="372.0" y="877.5" font-family="Arial, Helvetica, sans-serif" font-size="15.5" text-anchor="middle" font-weight="normal" font-style="normal" fill="#000">Atribuir perfil Master</text><ellipse cx="742" cy="290" rx="152" ry="24" fill="#fff" stroke="#000" stroke-width="1.7"/><text x="742.0" y="295.5" font-family="Arial, Helvetica, sans-serif" font-size="15.5" text-anchor="middle" font-weight="normal" font-style="normal" fill="#000">Enviar e-mail de acesso</text><ellipse cx="742" cy="500" rx="152" ry="24" fill="#fff" stroke="#000" stroke-width="1.7"/><text x="742.0" y="505.5" font-family="Arial, Helvetica, sans-serif" font-size="15.5" text-anchor="middle" font-weight="normal" font-style="normal" fill="#000">Gerar e enviar relatório por e-mail</text><ellipse cx="742" cy="700" rx="152" ry="24" fill="#fff" stroke="#000" stroke-width="1.7"/><text x="742.0" y="705.5" font-family="Arial, Helvetica, sans-serif" font-size="15.5" text-anchor="middle" font-weight="normal" font-style="normal" fill="#000">Comparar faces automaticamente</text><circle cx="92" cy="256.0" r="13" fill="#fff" stroke="#000" stroke-width="1.8"/><line x1="92.0" y1="269.0" x2="92.0" y2="302.0" stroke="#000" stroke-width="1.8"/><line x1="70.0" y1="282.0" x2="114.0" y2="282.0" stroke="#000" stroke-width="1.8"/><line x1="92.0" y1="302.0" x2="74.0" y2="332.0" stroke="#000" stroke-width="1.8"/><line x1="92.0" y1="302.0" x2="110.0" y2="332.0" stroke="#000" stroke-width="1.8"/><text x="92.0" y="354.0" font-family="Arial, Helvetica, sans-serif" font-size="16" text-anchor="middle" font-weight="bold" font-style="normal" fill="#000">Comum</text><circle cx="92" cy="650.0" r="13" fill="#fff" stroke="#000" stroke-width="1.8"/><line x1="92.0" y1="663.0" x2="92.0" y2="696.0" stroke="#000" stroke-width="1.8"/><line x1="70.0" y1="676.0" x2="114.0" y2="676.0" stroke="#000" stroke-width="1.8"/><line x1="92.0" y1="696.0" x2="74.0" y2="726.0" stroke="#000" stroke-width="1.8"/><line x1="92.0" y1="696.0" x2="110.0" y2="726.0" stroke="#000" stroke-width="1.8"/><text x="92.0" y="748.0" font-family="Arial, Helvetica, sans-serif" font-size="16" text-anchor="middle" font-weight="bold" font-style="normal" fill="#000">Administrador</text><circle cx="92" cy="844" r="13" fill="#fff" stroke="#000" stroke-width="1.8"/><line x1="92.0" y1="857.0" x2="92.0" y2="890.0" stroke="#000" stroke-width="1.8"/><line x1="70.0" y1="870.0" x2="114.0" y2="870.0" stroke="#000" stroke-width="1.8"/><line x1="92.0" y1="890.0" x2="74.0" y2="920.0" stroke="#000" stroke-width="1.8"/><line x1="92.0" y1="890.0" x2="110.0" y2="920.0" stroke="#000" stroke-width="1.8"/><text x="92.0" y="942.0" font-family="Arial, Helvetica, sans-serif" font-size="16" text-anchor="middle" font-weight="bold" font-style="normal" fill="#000">Master</text><circle cx="975" cy="362" r="13" fill="#fff" stroke="#000" stroke-width="1.8"/><line x1="975.0" y1="375.0" x2="975.0" y2="408.0" stroke="#000" stroke-width="1.8"/><line x1="953.0" y1="388.0" x2="997.0" y2="388.0" stroke="#000" stroke-width="1.8"/><line x1="975.0" y1="408.0" x2="957.0" y2="438.0" stroke="#000" stroke-width="1.8"/><line x1="975.0" y1="408.0" x2="993.0" y2="438.0" stroke="#000" stroke-width="1.8"/><text x="975.0" y="460.0" font-family="Arial, Helvetica, sans-serif" font-size="16" text-anchor="middle" font-weight="bold" font-style="normal" fill="#000">Servidor de</text><text x="975.0" y="479.0" font-family="Arial, Helvetica, sans-serif" font-size="16" text-anchor="middle" font-weight="bold" font-style="normal" fill="#000">e-mail (SMTP)</text><circle cx="975" cy="567" r="13" fill="#fff" stroke="#000" stroke-width="1.8"/><line x1="975.0" y1="580.0" x2="975.0" y2="613.0" stroke="#000" stroke-width="1.8"/><line x1="953.0" y1="593.0" x2="997.0" y2="593.0" stroke="#000" stroke-width="1.8"/><line x1="975.0" y1="613.0" x2="957.0" y2="643.0" stroke="#000" stroke-width="1.8"/><line x1="975.0" y1="613.0" x2="993.0" y2="643.0" stroke="#000" stroke-width="1.8"/><text x="975.0" y="665.0" font-family="Arial, Helvetica, sans-serif" font-size="16" text-anchor="middle" font-weight="bold" font-style="normal" fill="#000">Agendador</text><text x="975.0" y="684.0" font-family="Arial, Helvetica, sans-serif" font-size="16" text-anchor="middle" font-weight="bold" font-style="normal" fill="#000">(2º plano)</text><circle cx="975" cy="762" r="13" fill="#fff" stroke="#000" stroke-width="1.8"/><line x1="975.0" y1="775.0" x2="975.0" y2="808.0" stroke="#000" stroke-width="1.8"/><line x1="953.0" y1="788.0" x2="997.0" y2="788.0" stroke="#000" stroke-width="1.8"/><line x1="975.0" y1="808.0" x2="957.0" y2="838.0" stroke="#000" stroke-width="1.8"/><line x1="975.0" y1="808.0" x2="993.0" y2="838.0" stroke="#000" stroke-width="1.8"/><text x="975.0" y="860.0" font-family="Arial, Helvetica, sans-serif" font-size="16" text-anchor="middle" font-weight="bold" font-style="normal" fill="#000">Amazon</text><text x="975.0" y="879.0" font-family="Arial, Helvetica, sans-serif" font-size="16" text-anchor="middle" font-weight="bold" font-style="normal" fill="#000">Rekognition</text></svg>